PathFileType	4	(X/Y/Z)	C:\Users\Basilio\Documents\Thesis Gigler\squatting_fais\c3dfiles\047\SLS_pre_back5\markers_experimental.trc
DataRate	CameraRate	NumFrames	NumMarkers	Units	OrigDataRate	OrigDataStartFrame	OrigNumFrames
200.000000	200.000000	4	62	mm	200.000000	978	1304
Frame#	Time	FHD			LBHD			RBHD			C7			T10			CLAV			LSHO			LUUPA			LMUPA			LDUPA			LLEP			LMEP			LRAD			LUL			LRFIN			RSHO			RUPA1			RMUPA			RDUPA			RLEP			RMEP			RRAD			RUFIN			LASI			RASI			USACR			LSACR			RSACR			LTHI1			LTHI2			LTHI3			LTHI4			LLFC			LMFC			LTIB1			LTIB2			LTIB3			LTIB4			LLMAL			LMMAL			LMT1			LMT2			LMT5			RTHI			RTHI2			RTHI3			RTHI4			RLFC			RMFC			RTIB1			RTIB2			RTIB3			RTIB4			RLMAL			RMMAL			RHEE			RMT1			RMT2			RMT5			RUL			*60			*61			
		X1	Y1	Z1	X2	Y2	Z2	X3	Y3	Z3	X4	Y4	Z4	X5	Y5	Z5	X6	Y6	Z6	X7	Y7	Z7	X8	Y8	Z8	X9	Y9	Z9	X10	Y10	Z10	X11	Y11	Z11	X12	Y12	Z12	X13	Y13	Z13	X14	Y14	Z14	X15	Y15	Z15	X16	Y16	Z16	X17	Y17	Z17	X18	Y18	Z18	X19	Y19	Z19	X20	Y20	Z20	X21	Y21	Z21	X22	Y22	Z22	X23	Y23	Z23	X24	Y24	Z24	X25	Y25	Z25	X26	Y26	Z26	X27	Y27	Z27	X28	Y28	Z28	X29	Y29	Z29	X30	Y30	Z30	X31	Y31	Z31	X32	Y32	Z32	X33	Y33	Z33	X34	Y34	Z34	X35	Y35	Z35	X36	Y36	Z36	X37	Y37	Z37	X38	Y38	Z38	X39	Y39	Z39	X40	Y40	Z40	X41	Y41	Z41	X42	Y42	Z42	X43	Y43	Z43	X44	Y44	Z44	X45	Y45	Z45	X46	Y46	Z46	X47	Y47	Z47	X48	Y48	Z48	X49	Y49	Z49	X50	Y50	Z50	X51	Y51	Z51	X52	Y52	Z52	X53	Y53	Z53	X54	Y54	Z54	X55	Y55	Z55	X56	Y56	Z56	X57	Y57	Z57	X58	Y58	Z58	X59	Y59	Z59	X60	Y60	Z60	X61	Y61	Z61	X62	Y62	Z62	

979	4.89	-90.15299224853517	1707.122802734375	-1118.021484375	-261.1531066894532	1644.112426757813	-1139.80419921875	-233.0797729492188	1645.375366210938	-993.8574218750002	-262.5192565917969	1487.275756835938	-1070.754638671875	-349.5123596191407	1203.239379882813	-1026.46826171875	-127.8603897094727	1405.246704101563	-1104.1591796875	-208.7612304687501	1426.023559570313	-1255.227783203125	-187.2790679931641	1266.33447265625	-1355.354858398438	-138.2900848388672	1282.744262695313	-1359.887329101563	-132.9011993408203	1224.134521484375	-1372.877807617188	-65.81285858154298	1196.56640625	-1385.187377929688	-78.52327728271486	1150.309936523438	-1304.758911132813	94.54371643066408	1314.578857421875	-1223.807861328125	135.4156494140625	1249.860717773438	-1225.135620117188	185.2827453613282	1328.259033203125	-1224.781372070313	-136.3135528564453	1446.200805664063	-944.6887817382815	-57.17456436157228	1288.323852539063	-855.4417724609377	-16.99942016601563	1302.460205078125	-881.777526855469	-3.984509229660035	1244.066284179688	-867.247253417969	61.39534759521486	1215.747314453125	-894.325134277344	12.7584981918335	1157.93798828125	-945.125427246094	193.7247772216797	1250.276489257813	-1117.680297851563	173.2783813476563	1338.061889648438	-1135.506591796875	-255.0235748291016	938.939392089844	-1098.735717773438	-238.6361694335938	964.6365966796877	-875.129821777344	-400.819305419922	1078.257690429688	-997.3814697265627	-417.155242919922	1047.350952148438	-1021.302429199219	-411.797576904297	1052.936645507813	-963.441833496094	-327.3172912597657	801.0095825195315	-1170.129516601563	-273.8153686523438	735.6488037109376	-1172.774291992188	-227.5978393554688	750.4919433593751	-1163.356323242188	-286.9594116210938	675.8447265625001	-1170.247436523438	-260.8450012207032	511.3250122070314	-1132.809936523438	-220.528549194336	510.1358947753907	-1016.511047363281	-248.4877624511719	333.3002929687501	-1028.279907226563	-264.5534362792969	283.9044494628907	-1099.074584960938	-249.8763122558594	281.5449523925782	-1053.880737304688	-279.4190979003907	211.5548706054688	-1018.425598144531	-347.0497741699219	123.6448211669922	-1059.457275390625	-326.4196777343751	139.0127716064453	-971.3865356445315	-209.6247253417969	62.88774871826173	-990.262634277344	-207.6571350097657	63.02120971679689	-1035.645263671875	-258.3758850097657	51.6910972595215	-1078.888671875	-331.3283386230469	809.0510864257815	-759.7721557617189	-289.5092773437501	757.5991821289064	-749.2555541992189	-259.0674133300782	758.2767333984376	-760.0661621093751	-311.9749755859376	677.0274658203126	-737.6535644531251	-305.9257507324219	543.2009277343751	-742.8492431640626	-293.3696899414063	506.9363403320314	-867.8739013671877	-397.4315795898439	457.0978088378907	-751.3034057617189	-494.3384704589845	503.3736877441407	-729.7112426757814	-482.0578918457032	457.8569641113282	-731.5424804687501	-525.0191650390626	431.0223693847657	-763.7882690429689	-688.1730346679689	457.292205810547	-747.2258911132814	-660.2326660156251	423.3977355957032	-829.7713012695315	-700.5968627929689	510.7545166015626	-807.4650878906252	-749.3234863281251	309.1879882812501	-826.360290527344	-755.2480468750001	302.6113281250001	-785.3872070312502	-786.324157714844	357.3925170898438	-736.2395629882814	nan	nan	nan	nan	nan	nan	nan	nan	nan	
980	4.895	-92.01901245117189	1709.398193359375	-1118.145263671875	-262.9352722167969	1646.434204101563	-1139.519897460938	-235.0497589111329	1647.710083007813	-993.3337402343752	-263.8554077148438	1489.180419921875	-1070.50830078125	-349.0248413085938	1205.170166015625	-1026.796875	-129.2071228027344	1407.987670898438	-1103.968505859375	-209.9143981933594	1428.501098632813	-1255.122314453125	-188.3239135742188	1268.059204101563	-1354.786010742188	-139.4134979248047	1284.398559570313	-1359.365478515625	-134.4975280761719	1226.169189453125	-1371.963012695313	-66.94046783447267	1198.526733398438	-1384.433959960938	-80.10958862304689	1152.656860351563	-1303.595947265625	93.25791168212892	1317.435302734375	-1223.757690429688	134.3370208740235	1252.432495117188	-1224.6875	183.9997863769532	1330.950317382813	-1224.46533203125	-137.6991729736328	1448.634399414063	-944.5361328125002	-58.68393325805665	1290.469360351563	-855.2005615234377	-20.10049438476563	1303.873168945313	-882.0147705078127	-5.273350715637208	1246.55859375	-867.1465454101565	59.86516189575197	1218.213134765625	-893.9878540039065	11.24643611907959	1160.281860351563	-944.4444580078127	192.6167602539063	1253.028564453125	-1117.550170898438	172.1033935546875	1340.850463867188	-1135.18798828125	-254.1535339355469	940.6977539062502	-1099.4189453125	-237.7695465087891	966.7070312500002	-875.689392089844	-400.5932006835939	1079.537109375	-998.0933227539065	-416.8465270996095	1048.668701171875	-1021.800537109375	-411.2492675781251	1054.284301757813	-964.0544433593752	-326.9877014160157	802.1040039062502	-1170.306030273438	-273.9403991699219	736.2810058593751	-1172.977416992188	-227.6111145019532	750.8690185546876	-1163.4306640625	-287.5617675781251	676.7207641601564	-1170.113525390625	-262.2862854003907	511.9886169433595	-1132.311401367188	-222.2708435058594	510.9923400878907	-1015.69287109375	-250.0174713134766	333.9769287109376	-1027.39501953125	-265.4212951660157	284.3154296875001	-1098.707275390625	-250.8774108886719	282.2979431152344	-1053.709716796875	-280.0281982421876	211.9179687500001	-1018.040771484375	-347.1617431640626	123.7267379760742	-1059.354125976563	-326.5544738769532	138.8955535888672	-971.2241210937502	-210.0249328613282	62.7597007751465	-989.9100341796877	-207.7187805175782	63.05835723876955	-1035.65283203125	-258.4489135742188	51.74219512939455	-1078.863525390625	-330.3611145019532	811.0159912109377	-759.9310302734376	-288.7451782226563	759.7304687500001	-749.1466064453126	-258.1416015625001	760.3403930664064	-759.7855834960939	-310.9763183593751	679.0977783203126	-737.8538208007814	-305.0506286621094	545.0019531250001	-742.2275390625001	-291.7588806152344	508.491912841797	-867.2031860351565	-396.0072326660157	458.8243713378907	-750.9105834960939	-492.9541931152345	505.1828002929689	-729.8165283203126	-480.961395263672	459.6531066894532	-731.1566772460939	-523.5660400390626	432.4239196777345	-764.0727539062501	-686.6205444335939	458.6669311523439	-747.6265258789064	-658.5470581054689	424.5538024902345	-829.5305786132815	-699.4893188476564	511.9740600585939	-807.9771118164065	-748.1109008789064	310.1441040039063	-826.406188964844	-753.6903076171876	304.2380981445313	-784.2460937500002	-784.8796386718752	358.5893249511719	-736.5955200195314	nan	nan	nan	nan	nan	nan	nan	nan	nan	
981	4.9	-93.68285369873048	1712.265991210938	-1117.34423828125	-264.8498229980469	1648.851684570313	-1139.1044921875	-236.9078979492188	1649.904541015625	-992.551452636719	-265.5307617187501	1491.28662109375	-1070.436645507813	-350.0186462402344	1206.050537109375	-1027.223388671875	-130.3953704833985	1410.375610351563	-1103.63818359375	-211.2479705810547	1430.818237304688	-1255.069458007813	-189.4786987304688	1270.115478515625	-1354.134765625	-141.3019256591797	1286.523315429688	-1358.822387695313	-135.2844696044922	1227.887084960938	-1371.399169921875	-68.56649780273439	1200.548706054688	-1383.4970703125	-81.04562377929689	1154.8193359375	-1302.722778320313	92.06597137451173	1320.012573242188	-1223.50732421875	133.5594482421875	1254.995727539063	-1224.09619140625	182.6902160644532	1333.575073242188	-1223.990600585938	-139.5204467773438	1450.78759765625	-944.0760498046877	-60.20341110229494	1292.556518554688	-855.039245605469	-20.6362533569336	1306.333251953125	-881.7022094726565	-6.632906436920168	1248.7646484375	-866.6890258789065	58.58526611328126	1220.242431640625	-893.3403320312502	10.07237148284912	1162.470336914063	-944.417663574219	191.3025817871094	1255.77587890625	-1117.31005859375	170.7097778320313	1343.5009765625	-1134.580688476563	-252.9403839111329	942.072937011719	-1100.034301757813	-237.050033569336	968.4780883789065	-875.9935302734377	-400.0870361328126	1080.583740234375	-998.7295532226565	-416.4345703125001	1049.619750976563	-1022.393798828125	-410.7044677734376	1055.294921875	-964.6217041015627	-326.6035156250001	803.1900634765627	-1170.490112304688	-273.9050598144532	736.6326293945314	-1173.097900390625	-227.4339294433594	751.1882324218751	-1163.5537109375	-288.1541442871094	677.6398925781251	-1169.872314453125	-263.9115905761719	512.6307373046876	-1131.851196289063	-224.2619934082032	511.290496826172	-1014.95751953125	-250.6090698242188	334.4996337890626	-1027.890869140625	-266.0974426269532	285.1981201171876	-1098.687622070313	-251.7074737548829	282.3760986328126	-1053.306762695313	-280.6586303710938	212.0621795654297	-1017.608276367188	-347.2412719726563	123.772819519043	-1059.204956054688	-326.5810241699219	138.8730621337891	-971.1919555664065	-209.6876068115235	62.85665130615236	-990.1343383789065	-209.1863861083985	62.68412399291994	-1035.703247070313	-258.4193115234376	51.82093048095705	-1078.8095703125	-329.4081420898438	812.7649536132815	-760.1333618164064	-287.3425292968751	761.6707153320314	-749.1577758789064	-257.1925048828126	762.3614501953126	-759.6829223632814	-309.9006652832032	680.9561767578126	-737.5266723632814	-303.7590332031251	546.9744873046876	-741.6596679687501	-290.1538391113282	510.1194763183595	-866.6248168945315	-394.7076110839845	460.9693908691407	-750.3468627929689	-491.9065856933595	506.8203125000001	-729.4664916992189	-479.3984680175782	461.4244384765626	-731.0486450195314	-522.1182250976564	433.9935302734376	-763.7393798828126	-685.4042358398439	460.2376098632814	-747.7980957031251	-656.6530761718751	425.6201477050782	-829.5628662109377	-698.0211791992189	513.2998657226564	-808.3745727539065	-745.9245605468751	311.2312927246094	-826.5628662109377	-752.1355590820314	305.3945617675782	-784.5476684570315	-783.5323486328127	359.8460693359376	-736.5942993164064	nan	nan	nan	nan	nan	nan	nan	nan	nan	
982	4.905	-95.49278259277345	1714.164428710938	-1116.912109375	-266.4330139160157	1651.367065429688	-1138.56591796875	-238.8555603027344	1652.103515625	-991.7463989257815	-266.8354492187501	1493.253662109375	-1070.141479492188	-350.3509826660157	1207.559692382813	-1027.65771484375	-131.9637451171875	1412.8525390625	-1103.142333984375	-212.4233703613282	1433.166381835938	-1255.080078125	-190.7169494628907	1271.809448242188	-1353.59814453125	-141.9973907470703	1288.366577148438	-1358.496459960938	-136.5817260742188	1229.805908203125	-1370.657592773438	-69.51696014404298	1202.120727539063	-1382.8330078125	-82.44754028320314	1157.075439453125	-1301.560302734375	90.59898376464845	1322.114624023438	-1222.448974609375	131.672348022461	1257.629028320313	-1223.335205078125	181.2525634765625	1336.2333984375	-1223.57275390625	-141.238510131836	1453.261108398438	-944.0297851562502	-61.64443206787111	1294.823852539063	-854.7859497070315	-21.86007308959961	1307.86328125	-880.4402465820315	-8.168846130371096	1251.020263671875	-866.312194824219	57.31399154663087	1222.75732421875	-893.3372192382815	8.91145706176758	1164.717529296875	-944.1639404296877	189.9326171875	1258.387084960938	-1116.448486328125	169.0206451416016	1346.134887695313	-1133.731689453125	-252.8076934814454	944.0051269531252	-1100.34375	-236.041976928711	970.529724121094	-876.7830810546877	-399.8438720703126	1081.791381835938	-999.3455810546877	-415.720184326172	1050.660400390625	-1023.129333496094	-410.122283935547	1056.5	-965.2863769531252	-326.1751098632813	804.2322387695315	-1170.662963867188	-274.0868225097657	737.3872680664064	-1173.173217773438	-227.9385528564454	751.6632080078126	-1163.395874023438	-288.6664123535157	678.4111328125001	-1169.715087890625	-265.6093139648438	513.4248046875001	-1131.368896484375	-226.0569763183594	512.0338745117189	-1014.541625976563	-252.2250213623047	334.5958862304688	-1026.989013671875	-267.6779174804688	285.1150512695313	-1098.018676757813	-252.9024200439454	283.1341247558594	-1052.640258789063	-281.4334716796876	212.411849975586	-1017.271667480469	-347.2958679199219	123.7237548828125	-1059.125610351563	-326.7380371093751	138.7712707519532	-971.0095825195315	-209.843490600586	62.81611251831056	-989.947448730469	-207.7466583251954	63.12399291992189	-1035.563598632813	-258.3745422363282	51.86524963378908	-1078.757080078125	-328.4424133300782	814.5811767578127	-760.3839111328126	-286.7944335937501	763.3969116210939	-749.1405029296876	-256.1601257324219	764.1569213867189	-759.8048095703126	-308.5704345703126	682.9228515625001	-737.3945312500001	-302.3591613769532	548.9874267578126	-741.4545288085939	-288.6872863769532	511.8359375000001	-866.038513183594	-393.4068298339845	462.473358154297	-750.3475341796876	-490.5764160156251	508.6819458007814	-729.4129638671876	-478.2637329101564	463.1132812500001	-730.7167968750001	-520.8108520507814	435.6173095703126	-763.3112792968751	-684.0426635742189	461.3961181640626	-748.0155029296876	-655.0882568359376	426.6632690429689	-829.9448852539065	-696.8026733398439	514.6075439453126	-808.6121826171877	-744.4091186523439	312.3717346191407	-825.6829833984377	-750.5248413085939	306.5253906250001	-785.4629516601565	-781.8621826171877	361.1557922363282	-736.7598876953126	nan	nan	nan	nan	nan	nan	nan	nan	nan	
